PathFileType	4	(X/Y/Z)	C:\Users\Biomechanik\SynologyDrive\AlexP\Athlete_03\Athlete_3_25_03_31\Walking_06\marker_experimental.trc
DataRate	CameraRate	NumFrames	NumMarkers	Units	OrigDataRate	OrigDataStartFrame	OrigNumFrames
200.000000	200.000000	4	53	mm	200.000000	389	445
Frame#	Time	GLAB			RFHD			LFHD			C7			T6			SPINMOL			SPINM2			SPINM3			T12			BELTOL			BELT2			BELT3			SACROL			SACR2			SACR3			LTHOL			LTH2			LTH3			LSHAOL			LSHA2			LSHA3			LHEE			LTOE			LM5			RTHOL			RTH2			RTH3			RSHAOL			RSHA2			RSHA3			RHEE			RTOE			RM5			STRN			XIPH			LACR			LUAOL			LUA2			LUA3			LLAOL			LLA2			LLA3			LWRR			LWRU			RACR			RUAOL			RUA2			RUA3			RLAOL			RLA2			RLA3			RWRR			RWRU			
		X1	Y1	Z1	X2	Y2	Z2	X3	Y3	Z3	X4	Y4	Z4	X5	Y5	Z5	X6	Y6	Z6	X7	Y7	Z7	X8	Y8	Z8	X9	Y9	Z9	X10	Y10	Z10	X11	Y11	Z11	X12	Y12	Z12	X13	Y13	Z13	X14	Y14	Z14	X15	Y15	Z15	X16	Y16	Z16	X17	Y17	Z17	X18	Y18	Z18	X19	Y19	Z19	X20	Y20	Z20	X21	Y21	Z21	X22	Y22	Z22	X23	Y23	Z23	X24	Y24	Z24	X25	Y25	Z25	X26	Y26	Z26	X27	Y27	Z27	X28	Y28	Z28	X29	Y29	Z29	X30	Y30	Z30	X31	Y31	Z31	X32	Y32	Z32	X33	Y33	Z33	X34	Y34	Z34	X35	Y35	Z35	X36	Y36	Z36	X37	Y37	Z37	X38	Y38	Z38	X39	Y39	Z39	X40	Y40	Z40	X41	Y41	Z41	X42	Y42	Z42	X43	Y43	Z43	X44	Y44	Z44	X45	Y45	Z45	X46	Y46	Z46	X47	Y47	Z47	X48	Y48	Z48	X49	Y49	Z49	X50	Y50	Z50	X51	Y51	Z51	X52	Y52	Z52	X53	Y53	Z53	

390	1.945	2310.875244140625	1570.086059570313	187.7697143554692	2263.962646484375	1610.44091796875	247.7745666503911	2280.1337890625	1600.388671875	110.8049316406254	2063.5537109375	1443.556274414063	165.3829040527347	2005.581787109375	1270.9443359375	161.3136138916019	2001.333984375	1230.33984375	140.4241485595707	1992.1162109375	1223.320068359375	189.5342254638676	2006.378173828125	1166.778198242188	157.8287506103519	2033.53076171875	1102.475341796875	162.9242401123051	1997.763916015625	1069.0849609375	144.4829101562504	1993.505737304688	1067.0849609375	194.6920623779301	1991.603515625	1007.036499023438	164.9275512695316	2008.628540039062	959.0906372070314	151.9962310791019	2009.623413085938	957.7876586914064	203.2946166992191	1995.368896484375	898.6531982421876	176.187408447266	2128.848388671875	670.8836059570314	11.929653167725	2079.01708984375	614.4339599609376	38.37155151367226	2128.075927734375	612.6461791992189	29.18619155883828	2117.5810546875	316.7519531250001	46.77680206298867	2067.1708984375	256.8750915527345	60.73656845092811	2117.4052734375	255.6089782714845	57.43422698974648	2039.27685546875	71.15286254882825	160.4149627685551	2256.0263671875	40.80943679809584	161.2458496093754	2207.95751953125	27.34229087829603	60.10883712768595	2147.4189453125	680.8872680664064	386.7063598632816	2216.102294921875	647.8584594726564	409.8022766113285	2177.352783203125	626.2963256835939	387.1397705078129	2125.966064453125	420.5943908691407	386.9936523437504	2107.8701171875	344.5464172363282	380.728179931641	2081.563720703125	383.0134582519532	364.4497070312504	1935.961791992188	245.7601928710939	233.2005462646488	2074.0771484375	88.08052825927747	265.084381103516	2012.258422851562	110.4244995117189	354.382965087891	2231.36376953125	1344.265258789063	181.7854309082035	2249.7177734375	1201.971557617188	187.9223632812504	2147.62109375	1402.7578125	-0.2192941009994376	2156.277587890625	1248.086059570313	-100.0569152832027	2148.8935546875	1185.275268554688	-118.3859405517574	2193.86865234375	1194.210327148438	-95.20867919921835	2222.15771484375	990.3439331054689	-142.7993164062496	2201.16552734375	916.2319946289064	-126.7472991943355	2244.619384765625	934.1520385742189	-138.0187072753902	2294.591064453125	842.7343139648439	-132.8714141845699	2329.7705078125	859.7337646484376	-64.82878875732379	2129.571533203125	1405.1650390625	341.5122375488285	2103.5224609375	1258.755981445313	442.0004577636723	2127.06982421875	1196.928466796875	451.5706787109379	2077.162841796875	1201.510986328125	462.3956298828129	2107.525634765625	985.6361083984376	502.506744384766	2160.35205078125	935.7015380859376	535.3505859375003	2122.63623046875	922.9092407226564	510.2255859375004	2160.607666015625	844.9965209960939	532.3351440429691	2200.0263671875	826.1860351562501	464.2722167968754	
391	1.95	2317.08642578125	1570.414916992188	188.1477813720707	2270.1923828125	1610.662475585938	248.2176208496098	2286.330322265625	1600.872314453125	111.2514953613286	2069.79443359375	1443.953735351563	165.5562744140629	2011.867065429688	1271.317993164063	161.2998352050785	2007.589111328125	1230.728637695313	140.3804931640629	1998.409301757812	1223.66943359375	189.4964141845707	2012.67724609375	1167.159423828125	157.7515716552738	2039.82177734375	1102.869262695313	162.8811950683597	2003.84912109375	1069.41796875	144.7790679931644	1999.805541992188	1067.385498046875	194.9929199218754	1997.776000976562	1007.363647460938	165.244293212891	2014.713745117188	959.4630737304689	152.3980102539066	2016.012817382812	958.2579345703126	203.6942901611332	2001.553833007812	899.0775756835939	176.7699432373051	2131.940673828125	671.5280761718751	12.03314018249551	2081.806884765625	615.6228027343751	38.97932815551796	2130.791748046875	613.2675170898439	29.30005455017129	2118.386962890625	317.2014160156251	46.75688552856484	2067.77099609375	257.5183715820314	60.86740112304725	2118.011962890625	256.0653686523439	57.49102783203164	2039.510620117188	71.67095184326185	160.5532379150394	2256.125244140625	40.78709030151381	161.2288665771489	2207.940673828125	27.34934043884291	60.09293746948283	2156.46240234375	681.7381591796876	387.1569213867191	2225.783935546875	649.2987670898439	409.2544250488285	2186.823974609375	627.3415527343751	387.3365173339848	2138.113525390625	418.5682067871095	386.8073120117191	2122.07763671875	342.122528076172	380.1344909667973	2094.482177734375	379.9931030273439	364.448883056641	1951.625244140625	238.7834777832032	233.2752685546879	2095.15966796875	86.1629562377931	265.7023620605473	2032.760375976562	106.6851348876954	354.9783935546879	2237.658447265625	1344.767578125	181.7854766845707	2255.985107421875	1202.401000976563	187.6460876464848	2153.790283203125	1403.528686523438	-0.06936021149118914	2163.363037109375	1249.237426757813	-100.3087387084957	2156.40771484375	1186.433837890625	-118.7688827514644	2201.238525390625	1195.577880859375	-95.45308685302695	2231.91015625	992.1511230468751	-143.0818481445309	2212.044189453125	917.7333984375001	-126.9649658203121	2255.316162109375	936.3618164062501	-138.1267852783199	2306.87744140625	845.8067016601564	-132.5817718505855	2341.46728515625	863.6496582031251	-64.49227142333942	2135.843017578125	1405.323120117188	341.6416625976566	2108.864501953125	1258.946533203125	442.0996093750004	2132.077392578125	1197.010620117188	451.7902221679691	2082.1328125	1201.778442382813	462.2368774414066	2111.094970703125	986.1379394531251	502.7590026855473	2163.353759765625	935.7217407226564	536.0172729492191	2126.0830078125	923.1162109375001	510.6036071777348	2162.91357421875	845.0271606445314	533.1323852539066	2202.623291015625	825.7757568359376	465.3339233398441	
392	1.955	2323.29833984375	1570.692138671875	188.5454559326176	2276.41650390625	1610.827758789063	248.6814270019536	2292.52197265625	1601.303100585938	111.7191390991215	2076.033447265625	1444.294677734375	165.745269775391	2018.145263671875	1271.638549804688	161.3181152343754	2013.827880859375	1231.062133789063	140.3741302490238	2004.695678710938	1223.9697265625	189.4996032714847	2018.96337890625	1167.487060546875	157.7162628173832	2046.097534179688	1103.20947265625	162.8857574462894	2009.936279296875	1069.708129882813	145.146392822266	2006.119140625	1067.651000976563	195.3602142333988	2003.941528320312	1007.648071289063	165.6306457519535	2020.786254882812	959.7955932617189	152.8151245117191	2022.386840820312	958.6602783203126	204.1040802001957	2007.748291015625	899.4474487304689	177.3385009765629	2135.06884765625	672.1533203125001	12.14630126953164	2084.63330078125	616.7826538085939	39.54552459716835	2133.543212890625	613.8702392578126	29.4020652771	2119.236572265625	317.6517944335939	46.74384689331094	2068.410888671875	258.1600646972657	60.97234725952186	2118.6591796875	256.5217285156251	57.55973815918008	2039.747192382812	72.21016693115247	160.6812438964847	2256.222412109375	40.76267623901381	161.2129211425786	2207.929443359375	27.35767745971693	60.08221435546916	2165.441162109375	682.5455932617189	387.613189697266	2235.361328125	650.6782226562501	408.6740417480473	2196.208251953125	628.3295288085939	387.5173034667973	2150.21142578125	416.3906250000001	386.5950317382816	2136.2958984375	339.5883789062501	379.5496826171879	2107.41455078125	376.795623779297	364.4275207519535	1967.537963867188	231.5807647705079	233.4121093750004	2116.348388671875	84.24790954589857	266.3287353515629	2053.40185546875	102.8753738403322	355.5869140625004	2243.958984375	1345.210815429688	181.7984924316411	2262.251708984375	1202.76806640625	187.3811492919926	2159.960205078125	1404.231323242188	0.09540805220643621	2170.42919921875	1250.32568359375	-100.5353698730465	2163.901123046875	1187.536254882813	-119.1419143676754	2208.5791015625	1196.880249023438	-95.67858123779256	2241.611572265625	993.9245605468751	-143.3513336181637	2222.876708984375	919.2198486328126	-127.160133361816	2265.963623046875	938.5520629882814	-138.2225952148433	2319.075927734375	848.8839721679689	-132.2687072753902	2353.08642578125	867.5675048828126	-64.14697265624957	2142.110107421875	1405.419189453125	341.7872314453129	2114.196044921875	1259.08154296875	442.2095336914066	2137.07421875	1197.040893554688	452.0245056152348	2087.09375	1201.992797851563	462.0844726562504	2114.6748046875	986.5784301757814	503.0143737792973	2166.3818359375	935.7031860351564	536.685913085938	2129.554443359375	923.2774047851564	510.9729003906254	2165.255615234375	845.0217895507814	533.9074096679691	2205.291015625	825.3602905273439	466.3895263671879	
393	1.96	2329.511962890625	1570.915771484375	188.9617156982426	2282.63720703125	1610.935913085938	249.1648406982426	2298.712646484375	1601.67919921875	112.2059860229496	2082.271484375	1444.578125	165.9497985839847	2024.4169921875	1271.905151367188	161.3693695068363	2020.051635742188	1231.33935546875	140.4060058593754	2010.976318359375	1224.22021484375	189.5444946289066	2025.237670898438	1167.760131835938	157.7238006591801	2052.359375	1103.49560546875	162.9376983642582	2016.027221679688	1069.9599609375	145.5815124511722	2012.447143554688	1067.88671875	195.7906036376957	2010.100830078125	1007.893920898438	166.0801849365238	2026.848022460938	960.0908203125001	153.2502136230472	2028.747192382812	958.9976196289064	204.5267486572269	2013.948852539062	899.7669067382814	177.8958892822269	2138.2392578125	672.7551269531251	12.26377391815225	2087.500244140625	617.9085693359376	40.06017303466835	2136.334228515625	614.4521484375001	29.48776626586953	2120.1279296875	318.1011962890626	46.7381248474125	2069.0888671875	258.799774169922	61.0564155578617	2119.344970703125	256.9761047363282	57.64031219482461	2039.985229492188	72.76775360107435	160.7996215820316	2256.318603515625	40.73588562011732	161.1976318359379	2207.924072265625	27.3674240112306	60.07670593261759	2174.35791015625	683.3048706054689	388.0684204101566	2244.833251953125	651.9869995117189	408.0625305175785	2205.507568359375	629.2551879882814	387.6756286621098	2162.262939453125	414.074188232422	386.3542480468754	2150.518798828125	336.9609985351564	378.9805603027348	2120.3642578125	373.4359130859376	364.3822021484379	1983.705932617188	224.1801910400392	233.611968994141	2137.63232421875	82.35231018066419	266.967437744141	2074.169677734375	99.01174163818372	356.2099914550785	2250.264404296875	1345.593017578125	181.8250427246098	2268.518310546875	1203.072509765625	187.1279144287114	2166.130859375	1404.864990234375	0.275182008743684	2177.475341796875	1251.34912109375	-100.7353744506832	2171.373291015625	1188.579711914063	-119.5026016235348	2215.8896484375	1198.115600585938	-95.88301849365193	2251.263671875	995.6627197265626	-143.6076507568355	2233.663818359375	920.6910400390626	-127.336158752441	2276.56201171875	940.7208862304689	-138.3053588867183	2331.182861328125	851.9609375000001	-131.9318542480464	2364.62451171875	871.4813232421876	-63.79219818115191	2148.371826171875	1405.453979492188	341.9488525390629	2119.520751953125	1259.1611328125	442.3294372558598	2142.0654296875	1197.0205078125	452.2720031738285	2092.051513671875	1202.15478515625	461.9398803710941	2118.270751953125	986.9561157226564	503.2721862792973	2169.4365234375	935.6477661132814	537.3504028320317	2133.0400390625	923.3973388671876	511.3350219726566	2167.63671875	844.9783325195314	534.6592407226567	2208.03271484375	824.9365844726564	467.4395446777348	
